<svg xmlns="http://www.w3.org/2000/svg" viewBox="0 0 500 500"><g id="freepik--background-complete--inject-387"><rect x="393.7" y="31.65" width="65.97" height="68.77" style="fill:#e0e0e0"></rect><rect x="389.23" y="31.65" width="65.97" height="68.77" style="fill:#fafafa"></rect><path d="M455.22,100.44h-66V31.63h66Zm-66,0h65.93V31.68H389.25Z" style="fill:#e0e0e0"></path><rect x="398.1" y="40.9" width="48.23" height="50.28" style="fill:#fff"></rect><path d="M398.1,91.51a7.75,7.75,0,0,1-1.19,1.39c-.77.81-1.85,1.91-3.06,3.1s-2.33,2.26-3.15,3a7.78,7.78,0,0,1-1.4,1.16,8,8,0,0,1,1.18-1.38c.78-.81,1.86-1.91,3.08-3.11s2.33-2.27,3.15-3A8,8,0,0,1,398.1,91.51Z" style="fill:#e0e0e0"></path><path d="M446.33,91.39a7.37,7.37,0,0,1,1.39,1.19c.81.77,1.91,1.85,3.11,3.06s2.26,2.33,3,3.16a7.06,7.06,0,0,1,1.16,1.39A7.75,7.75,0,0,1,453.63,99c-.82-.77-1.92-1.86-3.12-3.08s-2.26-2.33-3-3.15A8,8,0,0,1,446.33,91.39Z" style="fill:#e0e0e0"></path><path d="M446.2,41a7.94,7.94,0,0,1,1.19-1.38c.77-.81,1.86-1.91,3.07-3.11s2.33-2.26,3.15-3A8,8,0,0,1,455,32.36a6.75,6.75,0,0,1-1.18,1.38c-.77.81-1.86,1.92-3.07,3.12s-2.34,2.26-3.16,3A7.2,7.2,0,0,1,446.2,41Z" style="fill:#e0e0e0"></path><path d="M398,41.16A8.55,8.55,0,0,1,396.59,40c-.82-.77-1.92-1.86-3.11-3.07s-2.26-2.33-3-3.15a8.12,8.12,0,0,1-1.16-1.39,7.07,7.07,0,0,1,1.38,1.18c.81.77,1.91,1.86,3.11,3.07s2.27,2.34,3,3.16A7.06,7.06,0,0,1,398,41.16Z" style="fill:#e0e0e0"></path><path d="M446.2,91.18s0-.09,0-.25,0-.4,0-.7c0-.63,0-1.54,0-2.71,0-2.38,0-5.85-.05-10.25,0-8.81-.05-21.35-.09-36.37l.18.19-48.09,0h0l.22-.21c0,18.45,0,35.72,0,50.28L398.1,91l34.83.1,9.78,0,2.59,0H446a.82.82,0,0,1,.23,0h-.86l-2.55,0-9.74,0-34.95.09h-.18v-.18c0-14.56,0-31.83,0-50.28v-.21h.22l48.09,0h.19v.19c0,15.07-.07,27.65-.1,36.49,0,4.38,0,7.83,0,10.2,0,1.17,0,2.06,0,2.68,0,.29,0,.52,0,.68A.77.77,0,0,1,446.2,91.18Z" style="fill:#e0e0e0"></path><rect x="414.17" y="57.99" width="16.09" height="16.09" style="fill:#ebebeb"></rect><rect x="37.24" y="46.59" width="73.98" height="77.12" style="fill:#e0e0e0"></rect><rect x="32.23" y="46.59" width="73.98" height="77.12" style="fill:#fafafa"></rect><path d="M106.23,123.73h-74V46.56h74Zm-74,0h73.93V46.61H32.26Z" style="fill:#e0e0e0"></path><rect x="42.18" y="56.95" width="54.09" height="56.38" style="fill:#fff"></rect><path d="M42.18,113.71a8.83,8.83,0,0,1-1.34,1.55c-.86.92-2.08,2.15-3.44,3.49s-2.61,2.53-3.53,3.38a8.48,8.48,0,0,1-1.56,1.3,8.67,8.67,0,0,1,1.32-1.54c.87-.91,2.09-2.15,3.45-3.49s2.62-2.54,3.54-3.39A8.1,8.1,0,0,1,42.18,113.71Z" style="fill:#e0e0e0"></path><path d="M96.27,113.57a9.42,9.42,0,0,1,1.55,1.34c.91.86,2.14,2.08,3.48,3.44s2.54,2.61,3.39,3.53a9,9,0,0,1,1.3,1.56,8.11,8.11,0,0,1-1.55-1.32c-.91-.87-2.15-2.08-3.49-3.45s-2.54-2.62-3.39-3.54A7.77,7.77,0,0,1,96.27,113.57Z" style="fill:#e0e0e0"></path><path d="M96.12,57.1a9,9,0,0,1,1.33-1.55c.87-.91,2.08-2.14,3.44-3.48s2.61-2.54,3.54-3.39a9.19,9.19,0,0,1,1.56-1.3,8.46,8.46,0,0,1-1.33,1.55c-.86.91-2.08,2.15-3.45,3.49S98.6,55,97.67,55.81A7.79,7.79,0,0,1,96.12,57.1Z" style="fill:#e0e0e0"></path><path d="M42,57.24a8.46,8.46,0,0,1-1.55-1.33c-.91-.87-2.15-2.08-3.49-3.44s-2.53-2.61-3.38-3.53a8.31,8.31,0,0,1-1.3-1.57,9.71,9.71,0,0,1,1.54,1.33c.91.86,2.15,2.08,3.5,3.45s2.54,2.61,3.38,3.54A8.66,8.66,0,0,1,42,57.24Z" style="fill:#e0e0e0"></path><path d="M96.12,113.34a1.3,1.3,0,0,1,0-.28c0-.19,0-.45,0-.78,0-.71,0-1.73,0-3,0-2.67,0-6.55,0-11.49C96,87.87,96,73.8,95.91,57l.21.21-53.94,0h0l.24-.24c0,20.7,0,40.06,0,56.39l-.2-.21,39.05.11,11,.05,2.91,0,.75,0h-.71l-2.86,0-10.92.06-39.19.1H42v-.2C42,97,42,77.65,41.94,57v-.24h.24l53.94,0h.21V57c0,16.9-.08,31-.11,40.93,0,4.91,0,8.78,0,11.44,0,1.3,0,2.31,0,3,0,.33,0,.58,0,.77A2.28,2.28,0,0,1,96.12,113.34Z" style="fill:#e0e0e0"></path><rect x="60.2" y="76.12" width="18.05" height="18.05" style="fill:#ebebeb"></rect><path d="M55,374.37a37.13,37.13,0,0,0-15.83-5.45c-2.59-.26-5.41-.19-7.49,1.38a1.53,1.53,0,0,0-.77,1.37,1.7,1.7,0,0,0,.73.93c6.44,4.91,16.19,5.53,23.36,1.77" style="fill:#e0e0e0"></path><path d="M54.56,373.92a76.75,76.75,0,0,1-10.22-9,25.87,25.87,0,0,1-6.41-11.86,4.77,4.77,0,0,1,.5-4c8.15,6.36,14.56,14.59,16.13,24.81" style="fill:#e0e0e0"></path><path d="M54.88,374.31a37.12,37.12,0,0,1,.19-13.42,18.17,18.17,0,0,1,7.15-11.08c1.41,3.29.81,7.08-.19,10.52a50.85,50.85,0,0,1-7.09,14.93" style="fill:#e0e0e0"></path><path d="M62.87,388.62c-4.85.59-9.07,3.15-12.69,6.43a24,24,0,0,0-7.26,12.46c4.75-.29,8.79-3.64,11.72-7.41s5-7.88,8.17-11.4" style="fill:#e0e0e0"></path><path d="M64.61,390.91a31.3,31.3,0,0,1,3.61-29.61c2.77,9.83,1.75,20.93-3.61,29.61" style="fill:#e0e0e0"></path><path d="M75.16,403.48a22.66,22.66,0,0,0-21.64,12.46c-.27.54-.51,1.22-.15,1.7a1.59,1.59,0,0,0,1.44.42c4.26-.27,8-2.84,11.16-5.76s5.84-6.3,9.29-8.83" style="fill:#e0e0e0"></path><path d="M74.83,402.8a40.31,40.31,0,0,1-.4-22.52c.79-2.9,2.12-5.95,4.8-7.31a.94.94,0,0,1,.74-.13,1,1,0,0,1,.46.54,13.45,13.45,0,0,1,1.13,6.46,39.33,39.33,0,0,1-1,6.54c-.84,4-1.29,8.29-3.48,11.74a24.67,24.67,0,0,0-1.4,2.58c-.41.88-.42,1.18-.8,1.88" style="fill:#e0e0e0"></path><path d="M102.77,407c-2.07-7.87.13-17.42,5.09-23.87.36-.48.85-1,1.45-.93.91.08,1.15,1.3,1.11,2.21A43.18,43.18,0,0,1,102.77,407" style="fill:#e0e0e0"></path><path d="M105.29,408.68c9.57,2.49,20.54.07,28.5-5.79a23.14,23.14,0,0,0-15.43-1.9c-5.15,1.18-9.86,3.49-13.07,7.69" style="fill:#e0e0e0"></path><path d="M107.41,403.44c5.36-8.74,15.63-14.44,25.87-15-1.18,4.17-4.6,7.4-8.46,9.36s-8.17,2.8-12.42,3.63c-1.65.32-3.92.67-5,2" style="fill:#e0e0e0"></path><path d="M103.3,378c1.45-5,2.91-10,3.31-15.15s-.34-10.55-3-15c-5,9.68-5.51,21-.44,30.65" style="fill:#e0e0e0"></path><path d="M120.15,369.48C126,358.84,138,350.35,150,349.16c-4.66,11.6-17.37,20.57-29.88,20.32" style="fill:#e0e0e0"></path><path d="M116.47,371.57c8.73,1.33,16.17,6.9,24.32,10.28a10.9,10.9,0,0,0,5.5,1,4.3,4.3,0,0,0,2.7-7.61,11.75,11.75,0,0,0-4-2.42c-8.88-3.7-18.41-3.8-27.77-1.55" style="fill:#e0e0e0"></path><path d="M111.42,377.69c2,.56,2.65,1.59,4.22,2.92a45.6,45.6,0,0,0,18.44,9.48c.71.17,1.63.24,2-.4s-.08-1.23-.48-1.72a25.31,25.31,0,0,0-11.13-7.56c-4.26-1.59-8-3.5-13-3.09" style="fill:#e0e0e0"></path><path d="M105.72,340.71a34.91,34.91,0,0,0,26.76,9.11,1.92,1.92,0,0,0,1.22-.44c.67-.73-.13-1.86-.92-2.48-7.87-6.13-17.4-8.67-27.06-6.19" style="fill:#e0e0e0"></path><path d="M112.48,338.24a37.27,37.27,0,0,1,33.39-5.51c-4.2,4.14-10,6.37-15.91,7a50.31,50.31,0,0,1-17.48-1.47" style="fill:#e0e0e0"></path><path d="M109.79,321.25c-.77-7.86-.27-14.06-.81-21.95,0-.63-.18-1.39-.77-1.61-.82-.32-1.51.69-1.78,1.53a25.13,25.13,0,0,0,3.35,21.85" style="fill:#e0e0e0"></path><path d="M109.23,322.11c5.32-3.29,9.31-7.59,13-12.64,2.57-3.52,4.73-7.73,4.15-12a12.48,12.48,0,0,0-9.39,4.66,26.26,26.26,0,0,0-4.78,9.62c-1,3.46-1.77,7-3,10.4" style="fill:#e0e0e0"></path><path d="M122,318.56a104.84,104.84,0,0,0,32-18.87c-3.82-1.54-8.2-.62-12,.92-8.74,3.53-15.88,9.48-20.16,17.87" style="fill:#e0e0e0"></path><path d="M112.82,326.41c5.91.65,11.91,1.07,17.78.09s11.21-3.25,16.59-5.52a1.9,1.9,0,0,0,1.13-.85,1.3,1.3,0,0,0-.4-1.42,3.45,3.45,0,0,0-1.42-.67c-5.85-1.63-12.17-.87-17.93,1.08a83.32,83.32,0,0,0-15.75,7.29" style="fill:#e0e0e0"></path><path d="M79.07,341c-4-8.14-3.77-17.64-.28-26,2.45,3.74,2.75,8.5,2.3,12.94s-1.8,9-1.89,13.49" style="fill:#e0e0e0"></path><path d="M63,332.86a36.26,36.26,0,0,0-27,11.49c5,.79,10.2-.51,14.77-2.74s8.63-5.36,12.66-8.47" style="fill:#e0e0e0"></path><path d="M52.14,329.23c-4.93-.4-9.67-1-14.4.45s-9,4.74-11,9.3a25.94,25.94,0,0,0,13.5-2.55,77.5,77.5,0,0,0,11.88-7.2" style="fill:#e0e0e0"></path><path d="M68.17,329.4c-4.43-2.9-9-5.86-14.14-7.06S42.89,322,39.3,325.91c4.17,2.45,9.24,2.74,14.08,2.74s10.78-.06,15.34,1.56" style="fill:#e0e0e0"></path><path d="M68.2,329.63c-7.58-7.43-10.45-20.8-7.4-31a47.19,47.19,0,0,1,7.4,31" style="fill:#e0e0e0"></path><path d="M89,308.56c1.43-3.32,2.44-6.81,3.72-10.19A29.16,29.16,0,0,1,98,289a14,14,0,0,1,9.38-4.86,37.78,37.78,0,0,1-18.21,24.49" style="fill:#e0e0e0"></path><path d="M85.26,313c-2.37-3.25-5.1-7.67-8.31-10.1s-7.38-3.9-11.29-3A26.31,26.31,0,0,0,85.26,313" style="fill:#e0e0e0"></path><path d="M86,308.83a56.47,56.47,0,0,1-3.74-12.1c-.62-4.18-.24-8.65,1.9-12.3,4.16,7.86,5.49,16.29,2,24.49" style="fill:#e0e0e0"></path><path d="M89.06,284.43c2.36-7.8,9.49-13.53,17.19-16.16a6.43,6.43,0,0,1,3-.46,2.62,2.62,0,0,1,2.22,1.86c.28,1.32-.81,2.51-1.84,3.39a58.62,58.62,0,0,1-20.59,11.37" style="fill:#e0e0e0"></path><path d="M89.15,278.05c.3-5,.61-10.12,2.24-14.88s4.79-9.22,9.37-11.3c.78,5.07-1.46,10.12-4.16,14.48s-5.95,8.49-7.58,13.36" style="fill:#e0e0e0"></path><path d="M89,281.51c-1.94-5.68-2.14-12.89-5.54-17.84-2.38-3.45-6.19-5.81-8.23-9.47A14.44,14.44,0,0,0,75.72,265,31.49,31.49,0,0,0,82,274c2.52,2.69,4.68,4.71,7,7.55" style="fill:#e0e0e0"></path><path d="M89.06,448.73c-.15,0-.28-37.88-.29-84.59s.1-84.61.25-84.61.29,37.87.3,84.61S89.21,448.73,89.06,448.73Z" style="fill:#e0e0e0"></path><path d="M122.16,335.26a7.26,7.26,0,0,1-1.42.54l-3.92,1.32c-3.3,1.13-7.84,2.76-12.77,4.78S94.57,345.69,92,348a8.81,8.81,0,0,0-2.43,3.22c-.38.89-.45,1.43-.5,1.42a1.51,1.51,0,0,1,0-.4,5.85,5.85,0,0,1,.28-1.1,8.55,8.55,0,0,1,2.37-3.43,21.29,21.29,0,0,1,5.25-3.26c2.1-1,4.43-2,6.9-3,4.94-2,9.52-3.6,12.86-4.64,1.67-.52,3-.9,4-1.15A9.45,9.45,0,0,1,122.16,335.26Z" style="fill:#e0e0e0"></path><path d="M133,308.61s-.12.16-.39.43l-1.22,1.14-4.54,4.12-15.1,13.45c-5.9,5.25-11,10.26-14.52,14-1.77,1.88-3.16,3.45-4.11,4.54-.45.5-.81.92-1.1,1.25s-.39.43-.41.41a3.38,3.38,0,0,1,.32-.48c.23-.3.57-.76,1-1.32.91-1.14,2.26-2.74,4-4.66a192.06,192.06,0,0,1,14.44-14.19c5.92-5.23,11.3-9.94,15.22-13.33l4.65-4,1.28-1.06A3.2,3.2,0,0,1,133,308.61Z" style="fill:#e0e0e0"></path><path d="M105.4,333.09c-.16-.07,1.07-2.92,2.3-6.51s1.82-6.63,2-6.61a22.41,22.41,0,0,1-1.46,6.78,44.29,44.29,0,0,1-1.84,4.56A7.4,7.4,0,0,1,105.4,333.09Z" style="fill:#e0e0e0"></path><path d="M89.1,356a5.83,5.83,0,0,1-.91-1.05l-2.33-3c-2-2.52-4.66-6-7.69-9.83s-5.81-7.24-7.83-9.72L68,329.48a7.46,7.46,0,0,1-.82-1.12,6,6,0,0,1,1,1c.6.66,1.46,1.63,2.51,2.83,2.09,2.42,4.93,5.81,8,9.63s5.69,7.35,7.57,9.94c.94,1.3,1.69,2.35,2.19,3.09A7.5,7.5,0,0,1,89.1,356Z" style="fill:#e0e0e0"></path><path d="M81.84,346.7a13.4,13.4,0,0,1-3-5.7,16.28,16.28,0,0,1-.69-5.74l.24,0c-.11.44-.19.67-.23.67s-.05-.25,0-.7h.24a26.71,26.71,0,0,0,1,5.59C80.3,344.23,82,346.6,81.84,346.7Z" style="fill:#e0e0e0"></path><path d="M72.47,334.91a9.32,9.32,0,0,0-2.12-1.23,14.22,14.22,0,0,0-5.9-.47,37,37,0,0,0-5.93,1,16.27,16.27,0,0,1-2.45.59,8.73,8.73,0,0,1,2.34-1,27.32,27.32,0,0,1,6-1.13,12.87,12.87,0,0,1,6.08.66A3.77,3.77,0,0,1,72.47,334.91Z" style="fill:#e0e0e0"></path><path d="M70.25,332.05c0,.09-1.24-.49-3.25-1.18a32.76,32.76,0,0,0-16.39-1.25c-2.1.37-3.37.77-3.4.68a2.93,2.93,0,0,1,.86-.37,21.21,21.21,0,0,1,2.46-.69,28.93,28.93,0,0,1,16.6,1.26,19.61,19.61,0,0,1,2.32,1.06A3.45,3.45,0,0,1,70.25,332.05Z" style="fill:#e0e0e0"></path><path d="M89,320a70.1,70.1,0,0,1-2.37-8.24,66.75,66.75,0,0,1-1.84-8.37,65.78,65.78,0,0,1,2.37,8.24A65.45,65.45,0,0,1,89,320Z" style="fill:#e0e0e0"></path><path d="M89.18,320c-.17.06-.85-2.41-2.63-4.93a21.6,21.6,0,0,0-3.87-4,3.43,3.43,0,0,1,1.49.77A11.73,11.73,0,0,1,87,314.73,10.9,10.9,0,0,1,89.18,320Z" style="fill:#e0e0e0"></path><path d="M89.06,428.54c-.06,0-.17-.91-.59-2.52a36.25,36.25,0,0,0-2.54-6.56c-2.61-5.35-7.37-12.13-13.43-18.92-3-3.43-5.9-6.66-8.37-9.75a67.67,67.67,0,0,1-6-8.64,42,42,0,0,1-3-6.41c-.27-.79-.48-1.41-.59-1.84a4.08,4.08,0,0,1-.16-.65s.33.87,1,2.41A47.45,47.45,0,0,0,58.47,382a73.53,73.53,0,0,0,6,8.52c2.48,3.06,5.39,6.28,8.4,9.71C79,407,83.73,413.86,86.28,419.29A32.63,32.63,0,0,1,88.67,426a17.12,17.12,0,0,1,.34,1.9A3,3,0,0,1,89.06,428.54Z" style="fill:#e0e0e0"></path><path d="M119,394.75a13.31,13.31,0,0,1-1.56.88,34.57,34.57,0,0,0-4.07,2.69,46.78,46.78,0,0,0-5.34,4.87c-1.87,2-3.8,4.28-5.78,6.74-3.93,4.95-7.62,9.32-9.83,12.81-1.12,1.73-1.93,3.19-2.46,4.22a13.15,13.15,0,0,1-.87,1.58,2.29,2.29,0,0,1,.15-.45c.11-.28.27-.7.52-1.23a40.8,40.8,0,0,1,2.34-4.32c2.14-3.58,5.79-8,9.73-13,2-2.47,3.93-4.77,5.84-6.75a44,44,0,0,1,5.47-4.83,27.83,27.83,0,0,1,4.2-2.57c.52-.26.94-.42,1.22-.54A1.67,1.67,0,0,1,119,394.75Z" style="fill:#e0e0e0"></path><path d="M119.56,405.71a21.68,21.68,0,0,1-3.31.48,44.48,44.48,0,0,0-7.86,1.55,23.87,23.87,0,0,0-7,3.69c-1.62,1.26-2.38,2.29-2.46,2.23s.13-.3.49-.76a13.67,13.67,0,0,1,1.73-1.77,21.33,21.33,0,0,1,7.11-3.91,36,36,0,0,1,8-1.41A18.64,18.64,0,0,1,119.56,405.71Z" style="fill:#e0e0e0"></path><path d="M99.86,412.46c-.18-.1,1.32-2.38,2.48-5.45s1.34-5.81,1.53-5.78a5.29,5.29,0,0,1-.05,1.78,18.8,18.8,0,0,1-1,4.19,20.34,20.34,0,0,1-1.92,3.84A5.44,5.44,0,0,1,99.86,412.46Z" style="fill:#e0e0e0"></path><path d="M128.66,365.33a2.86,2.86,0,0,1-.53.28l-1.56.71c-.68.29-1.51.66-2.44,1.15s-2,1-3.16,1.67l-1.81,1c-.63.36-1.25.79-1.91,1.2-1.33.81-2.67,1.81-4.09,2.82a77.35,77.35,0,0,0-8.54,7.52,76.39,76.39,0,0,0-7.22,8.79c-1,1.46-1.92,2.83-2.68,4.19-.39.67-.8,1.31-1.14,1.95l-1,1.84c-.65,1.16-1.11,2.27-1.56,3.22s-.8,1.79-1.07,2.48l-.65,1.58a3.56,3.56,0,0,1-.26.54,2.13,2.13,0,0,1,.15-.58c.15-.42.34-1,.56-1.62s.56-1.56,1-2.52.87-2.1,1.49-3.27l.94-1.87c.33-.65.73-1.3,1.12-2,.75-1.38,1.69-2.76,2.65-4.24a67.6,67.6,0,0,1,15.88-16.43c1.44-1,2.8-2,4.15-2.8.67-.41,1.3-.83,1.93-1.18l1.84-1c1.16-.67,2.27-1.15,3.22-1.6a26.17,26.17,0,0,1,2.49-1.08l1.6-.61A2.17,2.17,0,0,1,128.66,365.33Z" style="fill:#e0e0e0"></path><path d="M105,381.19a3.74,3.74,0,0,1,1.3-1.94,8.17,8.17,0,0,1,5.25-2,14.25,14.25,0,0,1,5.51,1.08,7.81,7.81,0,0,1,2.09,1,12,12,0,0,1-2.21-.65,17,17,0,0,0-5.38-.9,8.62,8.62,0,0,0-5,1.76A16.1,16.1,0,0,0,105,381.19Z" style="fill:#e0e0e0"></path><path d="M101.45,384.84a19.58,19.58,0,0,0,1.49-4.85,19.91,19.91,0,0,0-.33-5.05c.06,0,.35.48.61,1.41a10,10,0,0,1-.85,7.26C101.91,384.44,101.5,384.88,101.45,384.84Z" style="fill:#e0e0e0"></path><path d="M62.9,434c.82,14.48,5.18,29.2,11.89,44.09H104c6.4-14.74,10.46-29.44,11.18-44.09Z" style="fill:#e0e0e0"></path><path d="M110.42,457.39c0,.15-9.61.27-21.46.27s-21.45-.12-21.45-.27,9.6-.27,21.45-.27S110.42,457.24,110.42,457.39Z" style="fill:#fafafa"></path><path d="M109.77,462.63c0,.15-9,.28-20.12.28s-20.11-.13-20.11-.28,9-.27,20.11-.27S109.77,462.48,109.77,462.63Z" style="fill:#fafafa"></path><path d="M75.26,443.47a83.76,83.76,0,0,1,0,13.44,83.76,83.76,0,0,1,0-13.44Z" style="fill:#fafafa"></path><path d="M90.89,443.47a86.64,86.64,0,0,1,0,13.92,89.84,89.84,0,0,1,0-13.92Z" style="fill:#fafafa"></path><path d="M105.57,443.35a93.49,93.49,0,0,1,0,14.2,93.49,93.49,0,0,1,0-14.2Z" style="fill:#fafafa"></path><path d="M114.22,443.47c0,.15-11.27.27-25.16.27s-25.17-.12-25.17-.27,11.27-.27,25.17-.27S114.22,443.32,114.22,443.47Z" style="fill:#fafafa"></path><path d="M90.72,182.62A4.76,4.76,0,1,1,86,177.83,4.76,4.76,0,0,1,90.72,182.62Z" style="fill:#e0e0e0"></path><path d="M76.44,176.49a13.21,13.21,0,0,1,19.1-.25c2.43,2.45,6.24-1.32,3.8-3.77a18.61,18.61,0,0,0-26.67.22c-2.37,2.49,1.39,6.31,3.77,3.8Z" style="fill:#e0e0e0"></path><path d="M66.65,166.61a26.21,26.21,0,0,1,38.51-.55c2.4,2.48,6.21-1.3,3.8-3.77a31.53,31.53,0,0,0-46.08.52c-2.34,2.52,1.42,6.34,3.77,3.8Z" style="fill:#e0e0e0"></path><rect x="228.93" y="353.88" width="164.5" height="75.87" style="fill:#f5f5f5"></rect><path d="M389.51,426.17H232.69v-68.3H389.51Zm-155.79-1H388.49V358.9H233.72Z" style="fill:#e0e0e0"></path><rect x="393.43" y="353.88" width="40.19" height="75.87" style="fill:#e0e0e0"></rect><path d="M233.2,379H389a.21.21,0,0,0,0-.41H233.2a.21.21,0,0,0,0,.41Z" style="fill:#e0e0e0"></path><path d="M311.61,378.8a168.71,168.71,0,0,0,.05-20.61.21.21,0,0,0-.41,0,168.71,168.71,0,0,0,.05,20.61.16.16,0,0,0,.31,0Z" style="fill:#e0e0e0"></path><path d="M353.55,368.5a2.13,2.13,0,1,1-2.13-2.12A2.12,2.12,0,0,1,353.55,368.5Z" style="fill:#e0e0e0"></path><path d="M271.78,368.5a2.12,2.12,0,1,1-2.12-2.12A2.12,2.12,0,0,1,271.78,368.5Z" style="fill:#e0e0e0"></path><path d="M313.23,392a2.13,2.13,0,1,1-2.13-2.12A2.12,2.12,0,0,1,313.23,392Z" style="fill:#e0e0e0"></path><polygon points="248.59 429.75 240.13 477.38 244.89 477.38 260.5 429.75 248.59 429.75" style="fill:#e0e0e0"></polygon><polygon points="381.79 429.75 388.87 477.46 384.11 477.46 369.88 429.75 381.79 429.75" style="fill:#e0e0e0"></polygon><polygon points="413.59 429.75 421.62 477.46 416.85 477.46 401.68 429.75 413.59 429.75" style="fill:#e0e0e0"></polygon><path d="M313.08,413.49a2.12,2.12,0,1,1-2.12-2.12A2.12,2.12,0,0,1,313.08,413.49Z" style="fill:#e0e0e0"></path><path d="M233.2,402.5H389a.21.21,0,0,0,0-.41H233.2a.21.21,0,0,0,0,.41Z" style="fill:#e0e0e0"></path><rect x="313.82" y="298.33" width="10.13" height="49.74" transform="translate(640.4 2.62) rotate(89.7)" style="fill:#e0e0e0"></rect><rect x="314.13" y="318.23" width="15.73" height="55.44" transform="translate(666.24 22.13) rotate(89.7)" style="fill:#f5f5f5"></rect><path d="M339.08,353.56a57.37,57.37,0,0,1-.27-7.87,57.28,57.28,0,0,1,.27-7.86,59.26,59.26,0,0,1,.27,7.86A59.35,59.35,0,0,1,339.08,353.56Z" style="fill:#e0e0e0"></path><path d="M341.4,353.56a60.49,60.49,0,0,1-.26-7.87,60.4,60.4,0,0,1,.26-7.86,57.28,57.28,0,0,1,.27,7.86A57.37,57.37,0,0,1,341.4,353.56Z" style="fill:#e0e0e0"></path><path d="M302.66,353.56a57.37,57.37,0,0,1-.27-7.87,57.28,57.28,0,0,1,.27-7.86,57.28,57.28,0,0,1,.27,7.86A57.37,57.37,0,0,1,302.66,353.56Z" style="fill:#e0e0e0"></path><path d="M305,353.56a57.37,57.37,0,0,1-.27-7.87,57.28,57.28,0,0,1,.27-7.86,57.28,57.28,0,0,1,.27,7.86A57.37,57.37,0,0,1,305,353.56Z" style="fill:#e0e0e0"></path><path d="M310.07,346c0-.15,5.59-.28,12.49-.28s12.49.13,12.49.28-5.59.27-12.49.27S310.07,346.1,310.07,346Z" style="fill:#e0e0e0"></path><rect x="331.28" y="298.76" width="10.13" height="68.41" transform="translate(667.53 -5.13) rotate(89.7)" style="fill:#ebebeb"></rect><path d="M360.78,336.59a3.28,3.28,0,1,1,3.23-3.27A3.25,3.25,0,0,1,360.78,336.59Z" style="fill:#e0e0e0"></path><rect x="327.98" y="310.42" width="2.02" height="45.79" transform="translate(662.31 4.32) rotate(90)" style="fill:#e0e0e0"></rect></g><g id="freepik--Plant--inject-387"><path d="M356.14,307c-8.89,4.6-15.7,12.52-20.59,21.24s-8.06,18.29-11.18,27.8l-2.74,49c10.33-17.58,18.63-38.25,20.87-58.52l-6.88-.62c4.61-.7,8.49-4,10.95-8s3.73-8.53,5-13l-8.39,1.25A31.13,31.13,0,0,0,356.14,307Z" style="fill:#455a64"></path><g style="opacity:0.30000000000000004"><path d="M356.14,307c-8.89,4.6-15.7,12.52-20.59,21.24s-8.06,18.29-11.18,27.8l-2.74,49c10.33-17.58,18.63-38.25,20.87-58.52l-6.88-.62c4.61-.7,8.49-4,10.95-8s3.73-8.53,5-13l-8.39,1.25A31.13,31.13,0,0,0,356.14,307Z"></path></g><path d="M320.1,416.52S297.67,389.67,297.93,364H307s-9.85-6.47-9.07-10.1,1-17.34,1-17.34l8.29,2.07s-6.22-3.11-7-8,1.81-27.7,1.81-27.7,10.1,10.61,13.2,21.49,11.26,23.56,8.87,56.7S320.1,416.52,320.1,416.52Z" style="fill:#455a64"></path><path d="M331.47,419.06s24.31-16.19,29.71-36.86l-7.29-2s9.33-3.05,9.5-6.13,3-14.18,3-14.18l-7.12-.15s5.68-1.13,7.38-4.92,4.6-22.67,4.6-22.67-10.44,6.33-15.31,14.39S341.69,363,336.36,390.21,331.47,419.06,331.47,419.06Z" style="fill:#455a64"></path><path d="M308.2,326.35a1.55,1.55,0,0,1,.08.28c.05.21.12.48.2.82.18.77.42,1.83.72,3.19s.68,3.07,1.08,5.05.87,4.22,1.32,6.71c1,5,2,10.93,3,17.55s2,13.93,2.93,21.62,1.56,15,2.08,21.71.86,12.72,1.06,17.78c.12,2.53.18,4.83.24,6.84s.09,3.75.1,5.16,0,2.48,0,3.27c0,.35,0,.63,0,.85a.94.94,0,0,1,0,.29,1.11,1.11,0,0,1,0-.29c0-.22,0-.5-.05-.85,0-.78-.07-1.87-.12-3.26s-.1-3.15-.19-5.16-.17-4.3-.32-6.83c-.24-5.06-.65-11.08-1.17-17.76s-1.24-14-2.12-21.69-1.9-15-2.88-21.6-2-12.58-2.92-17.56c-.43-2.5-.87-4.75-1.25-6.72s-.7-3.68-1-5.07-.47-2.44-.62-3.21l-.15-.83A1.06,1.06,0,0,1,308.2,326.35Z" style="fill:#263238"></path><path d="M317,433s-20.53-23.29-26.9-37.37l4.81-2c-3.49.57-7.06-.93-9.77-3.2a37.07,37.07,0,0,1-6.64-8.23l6.34-1.07A23.57,23.57,0,0,1,271,370.32c7.48,1.23,14.25,5.33,19.83,10.47a99.13,99.13,0,0,1,12,13.92,46.84,46.84,0,0,1,4.66,7.67C310.93,409.51,317,424.41,317,433Z" style="fill:#455a64"></path><path d="M361.5,345.73a.86.86,0,0,1-.09.24c-.08.18-.19.4-.31.68-.3.63-.72,1.49-1.24,2.59-1.1,2.24-2.65,5.49-4.54,9.53-3.77,8.07-8.73,19.34-13.64,32s-8.81,24.37-11.45,32.88c-1.32,4.25-2.36,7.7-3.06,10.1-.35,1.16-.62,2.08-.82,2.75-.09.29-.17.52-.23.71a.91.91,0,0,1-.09.24.66.66,0,0,1,0-.25l.18-.73c.17-.68.42-1.6.73-2.78.63-2.41,1.62-5.88,2.9-10.15,2.55-8.54,6.41-20.26,11.31-33s9.94-24,13.8-32c1.93-4,3.53-7.25,4.68-9.46.57-1.08,1-1.93,1.33-2.55q.22-.39.36-.66A.87.87,0,0,1,361.5,345.73Z" style="fill:#263238"></path><path d="M318.73,443a9.85,9.85,0,0,1-.32-1.67c-.16-1.07-.43-2.62-.81-4.52a94.5,94.5,0,0,0-4.17-14.56,95.92,95.92,0,0,0-6.49-13.68c-1-1.68-1.8-3-2.38-3.93a9.51,9.51,0,0,1-.86-1.46,10.76,10.76,0,0,1,1,1.34c.65.88,1.51,2.2,2.53,3.86A82.56,82.56,0,0,1,318,436.69c.33,1.92.55,3.48.65,4.57A10,10,0,0,1,318.73,443Z" style="fill:#263238"></path><rect x="300.89" y="437.47" width="44.93" height="9.17" style="fill:#FF725E"></rect><polygon points="305.17 446.63 310.03 477.46 337.18 477.46 341.71 446.63 305.17 446.63" style="fill:#FF725E"></polygon><path d="M343.06,446.63c0,.15-8.5.26-19,.26s-19-.11-19-.26,8.49-.26,19-.26S343.06,446.49,343.06,446.63Z" style="fill:#263238"></path></g><g id="freepik--Earth--inject-387"><ellipse cx="290.89" cy="179.46" rx="100.77" ry="101.45" style="fill:#FF725E"></ellipse><g style="opacity:0.30000000000000004"><path d="M253.57,224.68c.53-4.41,4-8.89,2-12.88-2.22-4.45-8.68-3.73-13.22-5.72-6.34-2.79-8.31-10.67-12.45-16.23-3.72-5-12.39-10.45-19-8.95-4.78,1.09-6.42,3.94-6.92,7.45l-.6-.1c-1.77-.19-3.85-.28-4.82-1.75-1.13-1.71,0-4.24-1.18-5.92a9.32,9.32,0,0,0-2.52-1.88c-.86-.6-1.59-1.75-1.07-2.68s1.55-.94,2.11-1.65a1.64,1.64,0,0,0,0-2c-1.82-2.15-3.84,2.24-4.85,3.27a11,11,0,0,1-.81.77h0a5.25,5.25,0,0,0,0,.56c0,.6,0,1.21,0,1.82s0,1.21,0,1.82,0,1,0,1.47,0,1,0,1.48a16.92,16.92,0,0,1,3.11,1.53c2,1.13,4.14,2.63,4.27,4.89a1.93,1.93,0,0,0,.21,1.07,1.53,1.53,0,0,0,.94.48,27.56,27.56,0,0,0,5.12.71c0,2,.17,4.15.14,6.16-.05,2.92-1,5.8-.69,8.69.47,4.08,3.31,7.43,5.78,10.71,9.4,12.56,14.47,27,20,41.74h0c1,.81,2.48,1.89,3.53,2.64.83.6,1.59,1.12,2.44,1.69s1.61,1.06,2.48,1.6c.6.39.73.49,1.36.86-.08-.18.07.12,0,0-2.22-4.86-2.22-11.6,2.54-14a10.87,10.87,0,0,0,2.7-1.42c2.12-2,.38-6.15,2.5-8.16,1.2-1.12,3.06-1,4.54-1.71,2.67-1.23,3.53-4.64,3.32-7.57S253.24,227.6,253.57,224.68Z"></path></g><g style="opacity:0.30000000000000004"><path d="M196.38,150.42c1.88-1.61,5.13-1.8,6.58.21,1,1.43.8,3.4.53,5.15-.37,2.36-.73,4.72-1.12,7.08a3.73,3.73,0,0,0,.1,2.12c.7,1.5,3.16,1.21,4.1-.13s.84-3.17.59-4.8-.59-3.36,0-4.89c1.6-3.8,7.26-3.22,10.54-5.69,2-1.53,2.95-4.1,4.16-6.35s3.24-4.5,5.79-4.38c.86,0,1.71.35,2.57.32,2.52-.08,4-3.77,2.2-5.55a6.75,6.75,0,0,1-1.12-1.15,2.07,2.07,0,0,1,.8-2.5,5.89,5.89,0,0,1,2.68-.86c2.15-.36,4.3-.69,6.45-1,2.38-.37,5.42-1.6,5.09-4-.29-2.06-3.08-3-3.49-5a7,7,0,0,0-.27-1.5c-.66-1.3-2.62-.78-3.88-.08a3.12,3.12,0,0,0-4.73-1.51c-1.28,1-1.44,2.9-1.88,4.48-1.06,3.83-4.1,6.73-7,9.42a5.85,5.85,0,0,1-3.4,1.92c-1.32.06-2.71-1.36-2.1-2.52.41-.8,1.56-1.26,1.45-2.16-.16-1.11-2.11-1-2.49-2.1.77-3.16,4.39-4.46,7.16-6.15a17.38,17.38,0,0,0,7.32-9,2.26,2.26,0,0,0,.09-1.85c-.41-.79-1.48-.92-2.39-.92-2.14,0-4.8.26-5.58,2.25-.41,1.07-.11,2.28-.37,3.39-.74,3.32-5.29,3.69-8.06,5.66a25,25,0,0,1-3.13,2.43,11.75,11.75,0,0,1-4.24.68c-.25,0-.9,0-1.16,0-.88,1.22-1.57,2.33-2.38,3.59s-1.63,2.68-2.39,4a99.63,99.63,0,0,0-8.56,19.55c-.78,2.39-1.46,5-2.06,7.41s-1,4.8-1.43,7.32a28.75,28.75,0,0,0,1.82-6.34C193.73,154.55,194.51,152,196.38,150.42Z"></path></g><g style="opacity:0.30000000000000004"><path d="M281.06,104.84c.95-1.25.67-3,1.29-4.49,1-2.4,4.21-3.26,5.32-5.62.42-.91.53-2,1.27-2.7s1.54-.67,2.2-1.18c1.49-1.14.87-3.73-.71-4.73-3.95-2.53-11.22.39-14.63,2.86-4.39,3.18-8.69,7-14.53,6.63-1.61-.11-3.28-.55-4.79,0s-2.44,2.84-1.14,3.79c.72.53,1.75.39,2.56.76,1.51.7,1.66,2.88.92,4.37s-2.06,2.6-2.93,4a7.64,7.64,0,0,0-1.08,4.62,4.18,4.18,0,0,0,1.37,3c1.81,1.45,4.58.21,6.12-1.53s2.6-4,4.59-5.19a11.41,11.41,0,0,1,3.28-1.14l7.61-1.81A5.56,5.56,0,0,0,281.06,104.84Z"></path></g><g style="opacity:0.30000000000000004"><path d="M391.65,178.69c0-1.45-.06-2.89-.13-4.32s-.14-2.88-.28-4.3c-.11-1.15-.21-2.3-.37-3.43s-.32-2.57-.51-3.75a92.34,92.34,0,0,0-2.22-10.14c-.38-1.31-1-2.71-1.44-4s-.87-2.57-1.35-3.85h0c-.51-1-1.05-1.89-1.64-2.82-5.6-8.86-13.73-15.81-19.89-24.29-2-2.76-3.57-5-7.12-5.58-5.26-.82-7.93,2.18-11.66-2.81-1-1.34-2.75-2.58-4.24-1.79L342,110.8a1.46,1.46,0,0,1,.12.71c-.08.75-1.19.95-1.83.54a6.37,6.37,0,0,1-1.4-1.8,5.15,5.15,0,0,0-7.57-.62,2.88,2.88,0,0,0-1.68-2.36,3.46,3.46,0,0,1-4.34,2.79c-.3-1,1.44-1.15,2.05-2s-.12-1.87-.83-2.52a11,11,0,0,0-6.94-2.69c-1.61,0-3.35.27-4.75-.56-.81-.48-1.39-1.28-2.22-1.74-1.77-1-4-.08-5.77.91-2.44,1.35-5,3.06-5.82,5.72s1.06,6.24,3.83,5.9a5.53,5.53,0,0,1,2.12-.24,2.55,2.55,0,0,1,1.51,2.44,7.08,7.08,0,0,0,.47,3c.48.9,1.93,1.34,2.48.5,1.31-1.25,1.15-3.34.82-5.11s-.69-3.76.36-5.21,4.1-1,3.89.8c-.12,1-1.32,1.82-1.27,2.88s1.37,1.66,2.45,1.61,2.19-.43,3.24-.15,1.91,1.64,1.15,2.42c-1.33,1.5-4.77-1.07-5.45.8-.2.47,0,1,0,1.53-.13,1.56-2.09,2.13-3.65,2.32a8.56,8.56,0,0,1-4.64-.33c-1.42-.67-2.39-2.54-1.58-3.87a1.77,1.77,0,0,0-2.44.89,5.17,5.17,0,0,0-.18,2.9c-1.65-.37-3.14,1-4.08,2.42s-1.86,3-3.47,3.53-3.86-.18-4.71,1.29c-1.1,1.91,2.09,4.33,1,6.23-.64,1.07-2.17,1-3.38,1.37-3.21.91-4.32,5.6-2.14,8.1s6.55,2.36,8.86,0c1.62-1.64,2.27-3.95,3.43-5.93s3.37-3.75,5.57-3.11a6.75,6.75,0,0,1,2.28,1.43l3.2,2.7c.69.57,1.44,1.29,1.37,2.18-.06.72-.62,1.28-.86,1.95-.67,1.93,2.12,3.76,3.88,2.71s1.94-3.75.74-5.41c-1.65-2.29-5.4-3.44-5.3-6.28,1.91-1.56,4.92.08,6,2.3s1.15,4.81,2.09,7.09,3.57,4.32,5.77,3.21c-.58-2-1.13-3.94-1.71-5.9,1.41-1.05,3,2,4.69,1.5,1-.32,1.15-1.79.7-2.78s-1.23-1.81-1.42-2.88c-.32-1.95,1.85-3.69,3.81-3.37a5,5,0,0,1,3.73,4.12,9.79,9.79,0,0,0,.51,2.28c.74,1.53,2.63,2,4.2,2.63s3.2,2.21,2.55,3.78c-.31.68-1,1.33-.77,2s1.17.89,1.17,1.56c0,.44-.48.75-.9.92-1.05.43-2.2.58-3.22,1.07a2.91,2.91,0,0,0-1.86,2.58c.12,1.6,2,2.36,2.91,3.69s.74,2.93,1.28,4.37a15.76,15.76,0,0,0,2.41,3.49c2.64,3.6,3.27,8.24,4.56,12.51.57,1.93,1.62,4.08,3.6,4.45a6.07,6.07,0,0,0,3.19-.62c2.85-1.13,5.82-2.35,7.81-4.66s2.68-6.1.62-8.38a1.54,1.54,0,0,0-1-.62,2.92,2.92,0,0,0-1.5.52,4.27,4.27,0,0,1-4.45-1,12.42,12.42,0,0,1-2.64-4l-2.36-4.76a2.78,2.78,0,0,1,3.41.32,18,18,0,0,1,2.33,2.87c2.37,3,6.28,4.27,10.06,4.72a9.46,9.46,0,0,1,2.83.59c2.83,1.29,3.64,5.45,6.62,6.34a21.26,21.26,0,0,1,2.54.57,4.67,4.67,0,0,1,2.12,3.16c.65,2.35.87,4.82,1.86,7.05s3,4.25,5.39,4.29a5.65,5.65,0,0,0,4-1.74c.12-2.2.27-4.48.27-6.71C391.68,179.61,391.68,179.15,391.65,178.69Z"></path></g><g style="opacity:0.30000000000000004"><path d="M350.87,220.51c-1.5.29-1.8,1.18-2.62,2.29-1.06,1.44-2.58,2.89-3.55,4.32-1.63,2.42-.16,6.2-2.31,8.24A17.13,17.13,0,0,0,341,236.5a2.55,2.55,0,0,0,.52,3.52,3.48,3.48,0,0,0,3.76.07,5.54,5.54,0,0,0,2.3-3.15,5.23,5.23,0,0,1,1.16-2.57c1.24-1.08,3.15-.28,4.78-.51C360.4,232.89,357.44,219.21,350.87,220.51Z"></path></g><g style="opacity:0.30000000000000004"><path d="M353.21,201.48c4-3.44,5.58-11.21.64-13-1.87-.68-4-.13-5.88-.85-2.42-.94-3.55-3.65-4.42-6.1q-3.45-9.61-6.89-19.24c-1.38-3.86-3.48-8.34-7.54-8.91-2.31-.32-4.54.78-6.83,1.19-7.87,1.44-21.11-17.62-27.1-4.79-.84-3.49-6.5-2.18-8.31.92s-2.2,7.19-5.07,9.34c-2.19,1.64-5.4,1.74-7.18,3.81-1.26,1.46-1.48,3.51-1.64,5.43-.3,3.67-.6,7.33-.91,11-.24,2.95-.44,6.11,1,8.69s5.29,4,7.48,2c1-.92,1.43-2.31,2.25-3.4a5.7,5.7,0,0,1,5.88-2,9.87,9.87,0,0,1,4.48,3.15c10.25,11,13.92,26.75,14.37,41.8.09,2.76.09,5.59,1.1,8.15,1.19,3,3.69,5.44,4.43,8.58.57,2.42,0,5.07,1.07,7.33,1.91,4.15,8.28,4.32,11.75,1.35s4.67-7.77,5.38-12.29,1.15-9.27,3.68-13.07c1.57-2.37,3.87-4.26,5-6.87,1.53-3.65.4-8,1.82-11.68C343.65,207.1,349.23,204.92,353.21,201.48Z"></path></g></g><g id="freepik--Connection--inject-387"><path d="M225.81,373.86a26.88,26.88,0,1,1,24.61-24.6A26.91,26.91,0,0,1,225.81,373.86Z" style="fill:#fafafa"></path><path d="M225.81,373.86a26.88,26.88,0,1,1,24.61-24.6A26.91,26.91,0,0,1,225.81,373.86Z" style="fill:none"></path><path d="M225.81,373.86l.43-.08,1.27-.18a18.18,18.18,0,0,0,2-.41,22.66,22.66,0,0,0,2.71-.79,27,27,0,0,0,13.83-11,27.11,27.11,0,0,0,2.64-5.31,29.61,29.61,0,0,0,.87-3c.11-.53.24-1.05.33-1.59s.14-1.09.21-1.65a11.67,11.67,0,0,0,.09-1.68c0-.56,0-1.13,0-1.71-.06-1.14-.16-2.31-.32-3.48-.12-.59-.23-1.17-.35-1.76-.07-.29-.11-.59-.19-.88l-.28-.87c-.18-.58-.37-1.17-.56-1.76l-.75-1.7-.38-.86c-.14-.28-.31-.55-.47-.83l-1-1.65-1.14-1.56-.57-.79-.66-.73a26.15,26.15,0,0,0-6.08-5.15l-1.78-1c-.61-.31-1.25-.56-1.88-.85-.32-.13-.63-.29-1-.41l-1-.31a20.16,20.16,0,0,0-2-.6,29.31,29.31,0,0,0-8.49-.69,26.87,26.87,0,0,0-23.53,19.53,27.42,27.42,0,0,0-.92,7.23,10.28,10.28,0,0,0,.08,1.76l.15,1.74c.21,1.12.4,2.25.69,3.32a27.1,27.1,0,0,0,5.88,10.78,27.55,27.55,0,0,0,8.08,6.18l2,.89c.64.28,1.3.44,1.91.66a24,24,0,0,0,3.43.84,26,26,0,0,0,4.88.39h1.71l-.43,0-1.28.06a24.75,24.75,0,0,1-4.91-.3,23.1,23.1,0,0,1-3.47-.81c-.62-.2-1.29-.36-1.94-.64l-2-.88a27.3,27.3,0,0,1-14.26-17.11c-.3-1.09-.49-2.23-.72-3.37l-.15-1.76a11.93,11.93,0,0,1-.09-1.79,26.73,26.73,0,0,1,9.33-20.7A27.28,27.28,0,0,1,221.41,320a29.38,29.38,0,0,1,8.65.71,21,21,0,0,1,2.05.61l1,.32c.34.12.65.28,1,.42.64.29,1.29.55,1.92.87l1.8,1a26.8,26.8,0,0,1,6.2,5.27l.66.74.59.8,1.15,1.59c.32.57.65,1.13,1,1.69.15.28.33.55.47.84l.39.88c.25.58.5,1.16.76,1.74s.37,1.19.56,1.78l.28.89c.08.29.13.6.19.9l.36,1.79c.15,1.19.25,2.38.31,3.54,0,.59,0,1.17-.05,1.74a13.78,13.78,0,0,1-.1,1.71c-.08.56-.15,1.12-.22,1.67s-.23,1.08-.34,1.61a31.55,31.55,0,0,1-.9,3.08,28.2,28.2,0,0,1-2.71,5.38,27.46,27.46,0,0,1-7.13,7.45,27.15,27.15,0,0,1-6.94,3.52,22.8,22.8,0,0,1-2.75.75,16.56,16.56,0,0,1-2,.36l-1.27.13A2.43,2.43,0,0,1,225.81,373.86Z" style="fill:#263238"></path><path d="M399.59,191.42a51.35,51.35,0,0,1,.22-5.92,46.29,46.29,0,0,1,.42-5.91,26.81,26.81,0,0,1,.1,5.94A25.6,25.6,0,0,1,399.59,191.42Z" style="fill:#263238"></path><path d="M394.53,214.52a49.7,49.7,0,0,1,1.48-5.73,50.5,50.5,0,0,1,1.68-5.68,25.63,25.63,0,0,1-1.17,5.82A26.65,26.65,0,0,1,394.53,214.52Z" style="fill:#263238"></path><path d="M384.59,236a47.2,47.2,0,0,1,2.69-5.27,49.63,49.63,0,0,1,2.86-5.18A41.62,41.62,0,0,1,384.59,236Z" style="fill:#263238"></path><path d="M370.27,254.78a48,48,0,0,1,3.76-4.57,46.75,46.75,0,0,1,3.91-4.45,25.73,25.73,0,0,1-3.52,4.78A26,26,0,0,1,370.27,254.78Z" style="fill:#263238"></path><path d="M352.26,270.1a45.84,45.84,0,0,1,4.64-3.67,49.57,49.57,0,0,1,4.78-3.51,25.92,25.92,0,0,1-4.46,3.92A27.14,27.14,0,0,1,352.26,270.1Z" style="fill:#263238"></path><path d="M331.37,281.19a47.6,47.6,0,0,1,5.33-2.58,48.37,48.37,0,0,1,5.42-2.4,26.76,26.76,0,0,1-5.2,2.87A26.19,26.19,0,0,1,331.37,281.19Z" style="fill:#263238"></path><path d="M308.59,287.5a48.57,48.57,0,0,1,5.76-1.36,46,46,0,0,1,5.81-1.17,41.4,41.4,0,0,1-11.57,2.53Z" style="fill:#263238"></path><path d="M285,288.77a34.16,34.16,0,0,1,5.92-.1,34.16,34.16,0,0,1,5.92.1,41.93,41.93,0,0,1-11.84,0Z" style="fill:#263238"></path><path d="M261.63,285a47.87,47.87,0,0,1,5.81,1.17,50.37,50.37,0,0,1,5.76,1.36,26,26,0,0,1-5.87-.85A26.55,26.55,0,0,1,261.63,285Z" style="fill:#263238"></path><path d="M239.67,276.21a48.72,48.72,0,0,1,5.41,2.4,46.55,46.55,0,0,1,5.33,2.58,42.29,42.29,0,0,1-10.74-5Z" style="fill:#263238"></path><path d="M220.12,262.93a50.45,50.45,0,0,1,4.77,3.5,45.84,45.84,0,0,1,4.64,3.67,26.74,26.74,0,0,1-5-3.25A26.1,26.1,0,0,1,220.12,262.93Z" style="fill:#263238"></path><path d="M203.85,245.76a50,50,0,0,1,3.91,4.45,49.51,49.51,0,0,1,3.76,4.57,25.7,25.7,0,0,1-4.15-4.23A26,26,0,0,1,203.85,245.76Z" style="fill:#263238"></path><path d="M191.64,225.51a47.3,47.3,0,0,1,2.87,5.19A49.36,49.36,0,0,1,197.2,236a26.21,26.21,0,0,1-3.15-5A26.82,26.82,0,0,1,191.64,225.51Z" style="fill:#263238"></path><path d="M184.1,203.11a49.35,49.35,0,0,1,1.67,5.68,48.64,48.64,0,0,1,1.49,5.73,26,26,0,0,1-2-5.59A25.53,25.53,0,0,1,184.1,203.11Z" style="fill:#263238"></path><path d="M181.56,179.6a48.35,48.35,0,0,1,.42,5.91,47.47,47.47,0,0,1,.21,5.92,26.9,26.9,0,0,1-.73-5.89A26.1,26.1,0,0,1,181.56,179.6Z" style="fill:#263238"></path><path d="M184.09,156.09a47.35,47.35,0,0,1-.85,5.86,46.72,46.72,0,0,1-1.05,5.83,26.15,26.15,0,0,1,.54-5.91A26.48,26.48,0,0,1,184.09,156.09Z" style="fill:#263238"></path><path d="M191.64,133.68a47.13,47.13,0,0,1-2.1,5.54,48.6,48.6,0,0,1-2.28,5.46,25.48,25.48,0,0,1,1.8-5.66A26.25,26.25,0,0,1,191.64,133.68Z" style="fill:#263238"></path><path d="M203.85,113.43a51.38,51.38,0,0,1-3.25,4.95,48.72,48.72,0,0,1-3.4,4.84,26.1,26.1,0,0,1,3-5.13A26.37,26.37,0,0,1,203.85,113.43Z" style="fill:#263238"></path><path d="M220.11,96.27a49.84,49.84,0,0,1-4.23,4.15,45.84,45.84,0,0,1-4.37,4,26.6,26.6,0,0,1,4-4.37A25.9,25.9,0,0,1,220.11,96.27Z" style="fill:#263238"></path><path d="M239.67,83a50.38,50.38,0,0,1-5,3.15,50.47,50.47,0,0,1-5.12,3,25.57,25.57,0,0,1,4.85-3.42A26.08,26.08,0,0,1,239.67,83Z" style="fill:#263238"></path><path d="M261.62,74.23a50.66,50.66,0,0,1-5.57,2A47.28,47.28,0,0,1,250.41,78a26.26,26.26,0,0,1,5.47-2.28A25.78,25.78,0,0,1,261.62,74.23Z" style="fill:#263238"></path><path d="M285,70.42a48.94,48.94,0,0,1-5.88.74,48.57,48.57,0,0,1-5.89.53A42.18,42.18,0,0,1,285,70.42Z" style="fill:#263238"></path><path d="M308.58,71.69a49.85,49.85,0,0,1-5.9-.54,48.2,48.2,0,0,1-5.88-.73,25.86,25.86,0,0,1,5.94.22A25.49,25.49,0,0,1,308.58,71.69Z" style="fill:#263238"></path><path d="M331.37,78a47.9,47.9,0,0,1-5.64-1.8,48.07,48.07,0,0,1-5.58-2,26.46,26.46,0,0,1,5.74,1.49A25.86,25.86,0,0,1,331.37,78Z" style="fill:#263238"></path><path d="M352.25,89.09a48.08,48.08,0,0,1-5.12-3,48.67,48.67,0,0,1-5-3.14,26,26,0,0,1,5.29,2.69A25.57,25.57,0,0,1,352.25,89.09Z" style="fill:#263238"></path><path d="M370.26,104.4a48.62,48.62,0,0,1-4.37-4,47.87,47.87,0,0,1-4.22-4.14,26.25,26.25,0,0,1,4.58,3.76A26.32,26.32,0,0,1,370.26,104.4Z" style="fill:#263238"></path><path d="M384.59,123.21a45.94,45.94,0,0,1-3.41-4.84,47.15,47.15,0,0,1-3.25-5,26,26,0,0,1,3.68,4.66A26.49,26.49,0,0,1,384.59,123.21Z" style="fill:#263238"></path><path d="M394.53,144.67a49.14,49.14,0,0,1-2.29-5.47,51.3,51.3,0,0,1-2.1-5.53,26,26,0,0,1,2.59,5.34A26.63,26.63,0,0,1,394.53,144.67Z" style="fill:#263238"></path><path d="M399.59,167.76a49,49,0,0,1-1-5.83,47.08,47.08,0,0,1-.85-5.86,26.82,26.82,0,0,1,1.37,5.78A25.71,25.71,0,0,1,399.59,167.76Z" style="fill:#263238"></path><path d="M233.49,322c-.13-.06,3.86-9.12,8.92-20.24s9.26-20.09,9.39-20-3.86,9.12-8.92,20.24S233.62,322.06,233.49,322Z" style="fill:#263238"></path><path d="M226.12,347.52a7.06,7.06,0,0,0,4.22-6.55,6.65,6.65,0,1,0-13.28-.06,7.08,7.08,0,0,0,4.23,6.61c-10.22,1.54-9.76,12.65-9.76,12.65l24.18.11S236.26,349.05,226.12,347.52Z" style="fill:#FF725E"></path><path d="M425.82,306.45A26.89,26.89,0,1,1,440.5,274.9,26.92,26.92,0,0,1,425.82,306.45Z" style="fill:#fafafa"></path><path d="M425.82,306.45A26.89,26.89,0,1,1,440.5,274.9,26.92,26.92,0,0,1,425.82,306.45Z" style="fill:none"></path><path d="M425.82,306.45a1.78,1.78,0,0,1,.37-.23l1.13-.6a19.8,19.8,0,0,0,1.77-1.08,22.53,22.53,0,0,0,2.28-1.68,27.82,27.82,0,0,0,5.2-5.69,27.52,27.52,0,0,0,4.68-15.25,28.29,28.29,0,0,0-.22-3.16c-.08-.53-.13-1.07-.23-1.61s-.25-1.07-.38-1.61a11.85,11.85,0,0,0-.48-1.61l-.55-1.62c-.45-1.06-.95-2.12-1.5-3.17l-.93-1.53c-.16-.25-.31-.51-.48-.76l-.56-.72c-.37-.49-.75-1-1.13-1.46l-1.29-1.34-.65-.68c-.23-.22-.48-.41-.72-.62l-1.46-1.22-1.6-1.08-.82-.54-.86-.46A26.17,26.17,0,0,0,419.9,256l-2-.35c-.68-.08-1.38-.1-2.06-.16l-1-.06-1,0c-.7.05-1.4,0-2.1.13a28.86,28.86,0,0,0-8.2,2.26A26.85,26.85,0,0,0,388,284.25a27.59,27.59,0,0,0,1.61,7.11,11.67,11.67,0,0,0,.68,1.63l.73,1.57c.6,1,1.15,2,1.79,2.89a27,27,0,0,0,9.23,8.1,27.36,27.36,0,0,0,9.71,3.05l2.17.15c.7,0,1.38,0,2,0a25.3,25.3,0,0,0,3.52-.38A25.93,25.93,0,0,0,424.2,307l1.2-.44a1.77,1.77,0,0,1,.42-.13s-.13.07-.4.18l-1.18.49a24.32,24.32,0,0,1-4.72,1.41A24.89,24.89,0,0,1,416,309c-.66,0-1.34.1-2,.06l-2.21-.14a27.27,27.27,0,0,1-19.25-11.18c-.66-.92-1.22-1.93-1.83-2.93l-.75-1.6a12,12,0,0,1-.7-1.65,28,28,0,0,1-1.66-7.23,27.33,27.33,0,0,1,15.68-26.93,30.05,30.05,0,0,1,8.37-2.3c.7-.11,1.42-.08,2.13-.13l1.06,0c.36,0,.71,0,1.06.06.7.05,1.41.07,2.1.16l2.06.36a26.8,26.8,0,0,1,7.62,2.82l.88.47.82.55,1.63,1.11,1.49,1.25c.24.21.5.41.73.63l.66.69,1.31,1.37,1.15,1.49.56.73c.18.25.33.52.49.78l.95,1.56c.55,1.07,1.05,2.15,1.5,3.22.19.56.37,1.11.56,1.65a12.69,12.69,0,0,1,.48,1.64c.13.56.25,1.1.37,1.65s.16,1.09.23,1.63a27,27,0,0,1,.21,3.2,28,28,0,0,1-.7,6A26.88,26.88,0,0,1,431.49,303a21,21,0,0,1-2.32,1.65,16.46,16.46,0,0,1-1.8,1l-1.15.56Z" style="fill:#263238"></path><path d="M417.08,281.37a7.09,7.09,0,0,0,4.22-6.55,6.65,6.65,0,1,0-13.28-.07,7.06,7.06,0,0,0,4.23,6.62C402,282.91,402.49,294,402.49,294l24.17.11S427.21,282.9,417.08,281.37Z" style="fill:#FF725E"></path><path d="M393.32,265.61c-.09.11-4.45-3.19-9.74-7.38s-9.5-7.68-9.41-7.79,4.45,3.19,9.73,7.38S393.41,265.5,393.32,265.61Z" style="fill:#263238"></path><path d="M167.52,92.91A26.88,26.88,0,1,1,192.13,68.3,26.92,26.92,0,0,1,167.52,92.91Z" style="fill:#fafafa"></path><path d="M167.52,92.91A26.88,26.88,0,1,1,192.13,68.3,26.92,26.92,0,0,1,167.52,92.91Z" style="fill:none"></path><path d="M167.52,92.91a2.26,2.26,0,0,1,.43-.08l1.27-.19a15.81,15.81,0,0,0,2-.41,20.94,20.94,0,0,0,2.71-.79,27.22,27.22,0,0,0,16.47-16.29,26.68,26.68,0,0,0,.87-3c.11-.52.25-1,.33-1.59l.21-1.64a13.41,13.41,0,0,0,.1-1.68l0-1.71c-.06-1.15-.16-2.32-.31-3.49l-.36-1.76c-.06-.29-.11-.59-.19-.88l-.28-.87c-.18-.58-.37-1.16-.56-1.75L189.52,55l-.38-.86c-.14-.28-.31-.55-.46-.82l-1-1.66c-.38-.51-.75-1-1.13-1.56l-.58-.79-.66-.72a26.19,26.19,0,0,0-6.08-5.16l-1.78-1c-.61-.31-1.25-.57-1.88-.85-.32-.14-.63-.29-1-.41l-1-.32c-.67-.19-1.32-.46-2-.6a29.24,29.24,0,0,0-8.48-.68A26.85,26.85,0,0,0,147.91,46a27.12,27.12,0,0,0-8.28,13.07,27.5,27.5,0,0,0-.92,7.24,11.52,11.52,0,0,0,.08,1.76l.15,1.73c.22,1.13.4,2.25.69,3.32a27,27,0,0,0,5.89,10.78,27.42,27.42,0,0,0,8.08,6.18l2,.9c.64.28,1.3.44,1.91.65a24.77,24.77,0,0,0,3.43.85,26.88,26.88,0,0,0,4.88.39h1.28a2,2,0,0,1,.43,0,2.3,2.3,0,0,1-.43,0l-1.28.06a24.93,24.93,0,0,1-8.38-1.1c-.62-.21-1.29-.37-1.94-.64l-2-.89a27.24,27.24,0,0,1-14.26-17.1c-.3-1.09-.49-2.23-.71-3.38l-.16-1.76a11.86,11.86,0,0,1-.09-1.79,28,28,0,0,1,.92-7.36,27.31,27.31,0,0,1,24-19.92,29.65,29.65,0,0,1,8.64.7c.71.14,1.37.41,2,.61l1,.32c.33.13.65.28,1,.42.64.29,1.3.56,1.92.87L179.54,43a26.67,26.67,0,0,1,6.19,5.26l.67.74.58.8,1.15,1.6c.33.56.65,1.13,1,1.68.16.29.33.56.47.84l.39.88.76,1.74c.19.6.38,1.2.56,1.79l.28.88c.08.3.13.6.19.9l.36,1.79c.15,1.19.25,2.38.31,3.55,0,.58,0,1.16,0,1.74a12,12,0,0,1-.1,1.7c-.07.56-.15,1.12-.22,1.67s-.23,1.08-.34,1.62a30.44,30.44,0,0,1-.9,3.08,27.63,27.63,0,0,1-2.71,5.38A27.1,27.1,0,0,1,181,88.11,27.42,27.42,0,0,1,174,91.64a20.5,20.5,0,0,1-2.75.74,13.29,13.29,0,0,1-2.05.36l-1.27.14A2.43,2.43,0,0,1,167.52,92.91Z" style="fill:#263238"></path><path d="M167.84,66.49a7.1,7.1,0,0,0,4.22-6.55,6.66,6.66,0,1,0-13.29-.06A7.08,7.08,0,0,0,163,66.49c-10.22,1.54-9.75,12.65-9.75,12.65l24.17.11S178,68,167.84,66.49Z" style="fill:#FF725E"></path><path d="M209.14,107c-.1.11-6-4.57-13.1-10.45s-12.86-10.74-12.77-10.85,5.95,4.57,13.1,10.45S209.23,106.9,209.14,107Z" style="fill:#263238"></path><path d="M342.07,60a19.39,19.39,0,1,1,17.74-17.74A19.41,19.41,0,0,1,342.07,60Z" style="fill:#fafafa"></path><path d="M342.07,60a19.39,19.39,0,1,1,17.74-17.74A19.41,19.41,0,0,1,342.07,60Z" style="fill:none"></path><path d="M342.07,60a1.24,1.24,0,0,1,.31-.06l.91-.15a11.53,11.53,0,0,0,1.46-.3A16,16,0,0,0,346.7,59a19.72,19.72,0,0,0,11.84-11.74,19.85,19.85,0,0,0,1-4.52,19,19,0,0,0-1.67-9.95,22.3,22.3,0,0,0-1.29-2.4l-.82-1.12-.41-.57-.47-.52a18.9,18.9,0,0,0-4.38-3.7,19.64,19.64,0,0,0-5.47-2.3,20.71,20.71,0,0,0-6.1-.49,19.15,19.15,0,0,0-12.7,31.88A19.81,19.81,0,0,0,332,58l1.43.65c.47.2.94.31,1.38.47a17,17,0,0,0,2.47.61,19.33,19.33,0,0,0,3.51.3h.92l.32,0-.31,0-.93,0a18.25,18.25,0,0,1-6.05-.77c-.45-.15-.93-.26-1.41-.46l-1.46-.64a19.93,19.93,0,0,1-6-4.47,19.67,19.67,0,0,1-4.37-7.89,19.65,19.65,0,0,1,17.3-24.76,21.46,21.46,0,0,1,6.26.51A19.86,19.86,0,0,1,350.77,24a19.45,19.45,0,0,1,4.48,3.81l.48.54.43.58.83,1.16a23.4,23.4,0,0,1,1.32,2.46,19.58,19.58,0,0,1,.6,14.8,19.5,19.5,0,0,1-12.14,11.8,16.39,16.39,0,0,1-2,.54,12.34,12.34,0,0,1-1.48.25l-.92.09A1,1,0,0,1,342.07,60Z" style="fill:#263238"></path><path d="M342.29,41a5.09,5.09,0,0,0,3-4.72,4.8,4.8,0,1,0-9.58-.05A5.09,5.09,0,0,0,338.81,41c-7.37,1.11-7,9.12-7,9.12l17.43.09S349.6,42.14,342.29,41Z" style="fill:#FF725E"></path><path d="M335.4,59.41A79.61,79.61,0,0,1,332,67.93a80.31,80.31,0,0,1-3.9,8.31,82.71,82.71,0,0,1,3.42-8.52A84.13,84.13,0,0,1,335.4,59.41Z" style="fill:#263238"></path><path d="M435.92,171.65a24.9,24.9,0,1,1,22.79-22.79A24.93,24.93,0,0,1,435.92,171.65Z" style="fill:#fafafa"></path><path d="M435.92,171.65a24.9,24.9,0,1,1,22.79-22.79A24.93,24.93,0,0,1,435.92,171.65Z" style="fill:none"></path><path d="M435.92,171.65a2.59,2.59,0,0,1,.39-.08l1.17-.17a14.62,14.62,0,0,0,1.89-.38,21.13,21.13,0,0,0,2.51-.73,25.69,25.69,0,0,0,6.33-3.31,24.53,24.53,0,0,0,10.21-17.59,24.44,24.44,0,0,0-2.14-12.81l-.36-.8c-.13-.26-.28-.51-.43-.76l-.88-1.53L453.56,132l-.53-.73-.61-.67a23.91,23.91,0,0,0-5.64-4.77,24.62,24.62,0,0,0-7-3,27,27,0,0,0-7.85-.64,24.86,24.86,0,0,0-21.78,18.08,25.39,25.39,0,0,0-.86,6.69,9.84,9.84,0,0,0,.08,1.63c0,.54.09,1.07.13,1.6.21,1,.37,2.09.64,3.08a25,25,0,0,0,5.45,10,25.37,25.37,0,0,0,7.48,5.72l1.84.83c.6.26,1.21.41,1.77.61a23.22,23.22,0,0,0,3.18.78,24.36,24.36,0,0,0,4.52.37h1.18l.41,0-.41,0-1.18.05a22.23,22.23,0,0,1-4.55-.27,23.18,23.18,0,0,1-3.22-.74c-.57-.2-1.19-.34-1.79-.6l-1.88-.81a25.59,25.59,0,0,1-7.62-5.75,25.28,25.28,0,0,1-5.6-10.11c-.27-1-.45-2.06-.66-3.13-.05-.53-.1-1.08-.15-1.63a13.09,13.09,0,0,1-.08-1.66,26.44,26.44,0,0,1,.85-6.82,25.33,25.33,0,0,1,22.21-18.47,27.54,27.54,0,0,1,8,.65,25.62,25.62,0,0,1,7.19,3,24.66,24.66,0,0,1,5.74,4.88l.62.69.54.74,1.07,1.48c.3.52.6,1.05.9,1.56.14.26.3.52.43.78l.36.82a24.77,24.77,0,0,1,2.14,13.06,25,25,0,0,1-16.91,21,18.2,18.2,0,0,1-2.54.69,13.86,13.86,0,0,1-1.9.33l-1.18.13Z" style="fill:#263238"></path><path d="M436.2,147.25a6.54,6.54,0,0,0,3.91-6.07,6.16,6.16,0,1,0-12.3-.06,6.55,6.55,0,0,0,3.92,6.13c-9.47,1.43-9,11.72-9,11.72l22.39.1S445.59,148.67,436.2,147.25Z" style="fill:#FF725E"></path><path d="M409.74,152.94a37,37,0,0,1-6,1.81,37.87,37.87,0,0,1-6.09,1.31,37,37,0,0,1,6-1.81A37.87,37.87,0,0,1,409.74,152.94Z" style="fill:#263238"></path></g><g id="freepik--Character--inject-387"><path d="M114.76,433.3,99,454l-7.72,19.93a2.66,2.66,0,0,1-3.61,1.45h0a2.62,2.62,0,0,1-1.49-1.92c-1-5.41-4.48-25.31-3.24-26.75,1.43-1.68,15.14-22.91,15.14-22.91Z" style="fill:#FF725E"></path><g style="opacity:0.6000000000000001"><path d="M87.71,475.36,84,445.27l-.65.89a4,4,0,0,0-.75,2.66c.19,2.53.89,9.53,3.54,24.57a2.65,2.65,0,0,0,1.56,2Z" style="fill:#fff"></path></g><g style="opacity:0.6000000000000001"><path d="M93.24,441.61a1.6,1.6,0,0,1-.88,2,1.54,1.54,0,0,1-2-.85,1.71,1.71,0,0,1,.94-2.07,1.6,1.6,0,0,1,1.93,1.11" style="fill:#fff"></path></g><path d="M89.56,462.69a8.36,8.36,0,0,1,3-.3,8.18,8.18,0,0,1,2.76,1.3c.05,0-.09-.4-.53-.83a4.21,4.21,0,0,0-2.13-1,4.09,4.09,0,0,0-2.35.27C89.78,462.35,89.52,462.64,89.56,462.69Z" style="fill:#263238"></path><path d="M89,466.59a23.69,23.69,0,0,1,2.52.45c1.32.45,2.11,1.33,2.24,1.22s-.55-1.24-2-1.76A3,3,0,0,0,89,466.59Z" style="fill:#263238"></path><path d="M89.39,457.06a25.45,25.45,0,0,1,3.93.43A27.59,27.59,0,0,1,97,459a5.82,5.82,0,0,0-3.5-2.08A5.93,5.93,0,0,0,89.39,457.06Z" style="fill:#263238"></path><path d="M93.65,450.38c0,.16,1.47.52,3,1.56s2.48,2.28,2.62,2.18A5.16,5.16,0,0,0,97,451.47,5.09,5.09,0,0,0,93.65,450.38Z" style="fill:#263238"></path><path d="M98.11,444.19a13.26,13.26,0,0,1,3.2,1.55,12.85,12.85,0,0,1,2.28,2.72c.06,0,0-.45-.26-1.08a5.74,5.74,0,0,0-1.67-2.09,5.81,5.81,0,0,0-2.44-1.12C98.54,444.06,98.11,444.12,98.11,444.19Z" style="fill:#263238"></path><path d="M102.12,444.54s.28-.23.61-.78a6.87,6.87,0,0,0,.87-2.54,3,3,0,0,0-.2-1.93,1.08,1.08,0,0,0-1.11-.52,1.73,1.73,0,0,0-1,.71,3.77,3.77,0,0,0,.63,4.75,4.36,4.36,0,0,0,4.81.67,1.51,1.51,0,0,0,.8-1,1.05,1.05,0,0,0-.57-1.09,3.69,3.69,0,0,0-1.9-.28,7.41,7.41,0,0,0-2.62.59c-.59.25-.87.46-.85.49A12,12,0,0,1,105,443a3.34,3.34,0,0,1,1.65.29.55.55,0,0,1,.31.59,1,1,0,0,1-.56.61,3.89,3.89,0,0,1-4.16-.62,3.27,3.27,0,0,1-.59-4,1.22,1.22,0,0,1,.69-.52.56.56,0,0,1,.62.27,2.66,2.66,0,0,1,.2,1.63A10.16,10.16,0,0,1,102.12,444.54Z" style="fill:#263238"></path><path d="M131.13,444.33l1.6,21.11s-21,7.18-21,11.11l41.09-.09-1.14-33Z" style="fill:#FF725E"></path><g style="opacity:0.6000000000000001"><path d="M145.35,463.16a1.69,1.69,0,0,1,1.24,1.87,1.62,1.62,0,0,1-1.84,1.24,1.77,1.77,0,0,1-1.3-2,1.66,1.66,0,0,1,2.05-1.08" style="fill:#fff"></path></g><g style="opacity:0.6000000000000001"><path d="M152.77,476.46l-.12-3.33L113,474.6a2.85,2.85,0,0,0-1.5,2.25Z" style="fill:#fff"></path></g><path d="M132.05,465.26c0,.2,1,.25,2,.86s1.57,1.42,1.75,1.34-.16-1.24-1.4-1.95S132,465.08,132.05,465.26Z" style="fill:#263238"></path><path d="M127.82,467.21c0,.2.84.5,1.56,1.33s.94,1.71,1.14,1.69.29-1.16-.62-2.16S127.82,467,127.82,467.21Z" style="fill:#263238"></path><path d="M125.58,472.46c.18,0,.42-1-.14-2s-1.51-1.48-1.59-1.31.53.74,1,1.63S125.38,472.45,125.58,472.46Z" style="fill:#263238"></path><path d="M132.22,460.41c.09.18,1-.14,2.14-.1s2,.35,2.13.17-.78-.85-2.12-.87S132.12,460.25,132.22,460.41Z" style="fill:#263238"></path><g style="opacity:0.30000000000000004"><polygon points="131.45 448.51 131.73 452.27 151.9 451.29 151.79 447.89 131.45 448.51"></polygon></g><path d="M132,456.14a3.71,3.71,0,0,0,2.05-.09,9,9,0,0,0,2.13-.75,8.55,8.55,0,0,0,1.15-.67,2.46,2.46,0,0,0,.61-.51.88.88,0,0,0,.05-1.07,1.11,1.11,0,0,0-.9-.42,2.46,2.46,0,0,0-.77.14,7,7,0,0,0-1.26.49,6.81,6.81,0,0,0-1.84,1.32c-.92.91-1.22,1.68-1.15,1.71s.53-.58,1.48-1.35a7.86,7.86,0,0,1,1.79-1.1,6.9,6.9,0,0,1,1.16-.41c.43-.14.8-.15.92,0s0,.1,0,.23a2,2,0,0,1-.45.37,10.21,10.21,0,0,1-1.06.66,10.31,10.31,0,0,1-2,.84A14.32,14.32,0,0,0,132,456.14Z" style="fill:#263238"></path><path d="M132.25,456.42a3.31,3.31,0,0,0,.46-2,6.46,6.46,0,0,0-.37-2.24,6.68,6.68,0,0,0-.57-1.22,1.7,1.7,0,0,0-1.35-1,1,1,0,0,0-.84.61,3,3,0,0,0-.18.76,4.5,4.5,0,0,0,.06,1.38,4.67,4.67,0,0,0,1,2.09c.84,1,1.69,1.24,1.7,1.17s-.65-.46-1.3-1.46a4.61,4.61,0,0,1-.73-1.9,4,4,0,0,1,0-1.19c0-.44.2-.8.36-.76s.57.3.75.64a6.64,6.64,0,0,1,.55,1.1,7.13,7.13,0,0,1,.48,2C132.33,455.63,132.14,456.39,132.25,456.42Z" style="fill:#263238"></path><path d="M117.84,263.71s-9.67,18.54-9.67,33.55c0,3.17,19.62,160.58,19.62,160.58l27.77-2.33L142.09,310.07l4.36-29.56Z" style="fill:#263238"></path><path d="M179.67,280.14s-6.49,54.19-9.53,75.08c-3.19,21.86-9.46,26-9.46,26l-55.33,70L87.17,435.07l47.64-71.59s10.1-85.46,9.69-83.34S179.67,280.14,179.67,280.14Z" style="fill:#263238"></path><path d="M159.7,382.12a3.91,3.91,0,0,1-.46.67l-1.43,1.84-5.28,6.79-17.2,22.52c-6.71,8.82-12.83,16.76-17.35,22.44-2.26,2.84-4.11,5.12-5.41,6.67l-1.52,1.79a4.32,4.32,0,0,1-.55.59,3.71,3.71,0,0,1,.47-.67l1.43-1.84,5.27-6.79,17.21-22.53c6.7-8.81,12.82-16.75,17.34-22.43,2.26-2.84,4.11-5.12,5.41-6.67l1.52-1.79A4.32,4.32,0,0,1,159.7,382.12Z" style="fill:#455a64"></path><path d="M149.6,299c.08.14-2.46,1.72-5.27,4.09s-4.81,4.59-4.93,4.48a6.41,6.41,0,0,1,1.19-1.57,33.34,33.34,0,0,1,3.41-3.31,34.5,34.5,0,0,1,3.84-2.79A6.92,6.92,0,0,1,149.6,299Z" style="fill:#455a64"></path><path d="M139.62,307.23a7.84,7.84,0,0,1-5.61-3.41c.11-.1,1.16.95,2.7,1.88S139.66,307.08,139.62,307.23Z" style="fill:#455a64"></path><path d="M177.48,294.56c0,.15-2.74-.19-6.11-.37s-6.1-.17-6.11-.32a23.22,23.22,0,0,1,6.14-.2A22.91,22.91,0,0,1,177.48,294.56Z" style="fill:#455a64"></path><path d="M140.88,311.87a.73.73,0,0,1,0,.24l-.06.73c-.07.67-.16,1.6-.28,2.76-.26,2.45-.64,5.91-1.11,10.18-1,8.62-2.36,20.45-3.86,33.53-.17,1.44-.34,2.86-.5,4.2v.06l0,.05-17.14,25.73L112.72,397l-1.41,2.05c-.16.21-.28.39-.38.53a1.07,1.07,0,0,1-.15.17,1.1,1.1,0,0,1,.11-.2l.33-.55,1.34-2.11,5-7.74,17-25.82,0,.11c.15-1.34.32-2.76.49-4.2,1.57-13.07,3-24.9,4-33.52.53-4.25,1-7.71,1.27-10.15.16-1.16.28-2.08.38-2.76,0-.28.08-.52.11-.71A.68.68,0,0,1,140.88,311.87Z" style="fill:#455a64"></path><path d="M128.5,176.73s-9.71,5.83-12.62,11S97.41,227.82,98.06,234s15.22,13,15.22,13l15.22-19.74-9.06-6.15,9.06-11.33Z" style="fill:#455a64"></path><path d="M144.18,171.7l-15.68,5s-7.12,67.64-10.68,77.35S110,277.35,110,277.35s5.26,16.68,27.27,19.27,43.86-10.87,43.86-10.87,7.18-31.32,11.06-59.8,1-45.44,1-45.44L168.51,171Z" style="fill:#455a64"></path><path d="M113.28,247s35.26,7,48.06-8.13L157.63,226s-23.29,5.51-30.57,3.14Z" style="fill:#455a64"></path><path d="M160.75,224.08s6.57-13,7.28-13.12,11.06-3.79,11.06-3.79a3.78,3.78,0,0,1,0,2.61l3.71.47s-.55,2.29-1.82,2.61l1.35,1.18a7.42,7.42,0,0,1-2.53,2.14,2.78,2.78,0,0,1-2.45,0s.47.86-1.66,2.2-6.43,7.57-6.43,7.57Z" style="fill:#ba7f72"></path><path d="M178.76,209.82a46.53,46.53,0,0,1-6.77,2.64c-.94.34-1.89.59-2.63.95a3.49,3.49,0,0,0-1.54,1.47c-.62,1.11-.85,1.92-.94,1.89a4.88,4.88,0,0,1,.59-2.08,3.77,3.77,0,0,1,1.66-1.74,21.47,21.47,0,0,1,2.67-1A46.94,46.94,0,0,1,178.76,209.82Z" style="fill:#8b5d54"></path><path d="M181.17,212.86a5.23,5.23,0,0,1-1.87.68c-1.19.32-2.86.59-4.63,1.07a12,12,0,0,0-4.19,2c-.94.73-1.36,1.37-1.44,1.32a3.49,3.49,0,0,1,1.18-1.62,10.31,10.31,0,0,1,4.3-2.21c1.83-.49,3.5-.7,4.7-.92A10.84,10.84,0,0,1,181.17,212.86Z" style="fill:#8b5d54"></path><path d="M171.69,218.32a4.52,4.52,0,0,1,2.48-1.68,4.38,4.38,0,0,1,3-.27c0,.16-1.3.26-2.79.8S171.79,218.45,171.69,218.32Z" style="fill:#eb996e"></path><path d="M187.48,180.1c-.93.27-7.2,8.61-10.43,19.61s-6.8,22.33-6.8,22.33l-1,3.91-40-9.77-8.91,11.93s25.9,22.52,45,23.36a30.07,30.07,0,0,0,23-14.22c8.42-13.91,13.6-31.07,13.6-31.07S201.39,176,187.48,180.1Z" style="fill:#455a64"></path><path d="M127.34,206.75a28.06,28.06,0,0,1,.87-5.49,27.55,27.55,0,0,1,1.42-5.38,28.06,28.06,0,0,1-.87,5.49A27.55,27.55,0,0,1,127.34,206.75Z" style="fill:#263238"></path><g style="opacity:0.30000000000000004"><path d="M155.08,249.57c-2.09-.88-4.09-2.07-6.33-2.41-2.72-.41-5,.4-7.71.82-8.11,1.27-14.15.3-21.8,0l-.41,2.35c3.36,2.62,7.59,3.46,11.85,3.38,3.88-.07,7.67-1.33,11.54-1.22a39,39,0,0,1,9,1.8c4.93,1.3,10.08,2.11,15.12,1.35,12.68-1.91,19.47-13.69,21.58-18.34a79.88,79.88,0,0,1-5.41,6.61C174.41,252.28,161.77,252.39,155.08,249.57Z"></path></g><path d="M163.59,214.28a27.66,27.66,0,0,1-5-1.36,26,26,0,0,1-4.85-1.86,25.42,25.42,0,0,1,5,1.36A25.34,25.34,0,0,1,163.59,214.28Z" style="fill:#fff"></path><path d="M194.06,226.49a.76.76,0,0,1-.05.23c-.06.18-.13.4-.22.66a23.81,23.81,0,0,1-1.08,2.45,61.7,61.7,0,0,1-5.23,8.3c-1.23,1.67-2.64,3.46-4.27,5.27-.82.91-1.7,1.81-2.67,2.7a14.83,14.83,0,0,1-3.42,2.17,34,34,0,0,1-8.2,2.66,24.9,24.9,0,0,1-9.26-.1,45.58,45.58,0,0,1-8.81-2.81c-1.4-.52-2.71-1.2-4-1.78s-2.55-1.26-3.75-1.91a115.56,115.56,0,0,1-12.32-7.77c-3.36-2.41-6-4.53-7.73-6-.88-.75-1.55-1.35-2-1.76a5.22,5.22,0,0,1-.66-.66,1,1,0,0,1,.19.14l.54.44,2.06,1.69c1.8,1.45,4.44,3.51,7.82,5.88a121.33,121.33,0,0,0,12.32,7.64c1.21.65,2.46,1.26,3.74,1.89s2.61,1.24,4,1.76a46.23,46.23,0,0,0,8.72,2.77,24.31,24.31,0,0,0,9.07.1,33.44,33.44,0,0,0,8.09-2.58,14.68,14.68,0,0,0,3.32-2.08c.95-.86,1.83-1.75,2.65-2.65,1.63-1.79,3.05-3.55,4.29-5.2a66,66,0,0,0,5.35-8.18c.54-1,.92-1.83,1.16-2.39.11-.25.19-.46.27-.63A2,2,0,0,1,194.06,226.49Z" style="fill:#263238"></path><path d="M179,193.45a5.32,5.32,0,0,1-.15.66l-.51,1.88c-.48,1.68-1.16,4-2,6.92-1.74,5.9-4.13,14-6.82,23.11l-.07.24-.27-.07c-.95-.24-2.08-.47-3.17-.71-10.05-2.15-19.12-4.25-25.64-6-3.26-.85-5.88-1.61-7.69-2.15l-2.06-.66a3.68,3.68,0,0,1-.71-.27,3.76,3.76,0,0,1,.74.17l2.09.57c1.82.48,4.45,1.18,7.72,2,6.53,1.63,15.61,3.67,25.66,5.82,1.11.25,2.16.46,3.24.74l-.34.17c2.75-9.09,5.2-17.18,7-23.07l2.13-6.88c.25-.77.45-1.38.61-1.85A2.81,2.81,0,0,1,179,193.45Z" style="fill:#263238"></path><path d="M121.63,227.88l-11.4.42c-1.14,0-2.2-1-2.68-2.63L98.62,194.4c-.56-2.16.64-3.9,2.58-4l15.07-.94c2.42,0,3.71,1,4.15,2.87l5.87,24.75C127.53,222.3,125.19,227.75,121.63,227.88Z" style="fill:#263238"></path><path d="M131.38,213.12l-3-6.42-5-1.66,1.52,6.13c-2,.94-4.89,1.43-6.58.5s-8.3-7.51-9.55-6.88-2.36,2.14-1.22,3.58,7.34,5.92,6.06,7.25-8.42-4.48-10.52-4.05-3.38,1.65-2.21,2.55,4,3.77,4.55,5c-.12,1.58-.87,3.82-.18,4.2a24.92,24.92,0,0,0,5.26,1.83,58.54,58.54,0,0,1,5.49,2,12.19,12.19,0,0,0,8.62.2l1.43-.5a5.5,5.5,0,0,0,3.68-5.25l-.05-4.73Z" style="fill:#ba7f72"></path><path d="M123.73,211.64a8,8,0,0,1-.48-1.51L122.12,206c-.47-1.79-1-3.89-1.61-6.2q-.45-1.75-.93-3.66c-.36-1.24-.5-2.69-1.36-3.63s-2.35-1-3.61-.93l-3.76.29-6.39.45-4.3.27a8.41,8.41,0,0,1-1.59,0,11.3,11.3,0,0,1,1.57-.23l4.3-.42,6.38-.57,3.77-.32a8.91,8.91,0,0,1,2,.09,3.48,3.48,0,0,1,2,1,4.48,4.48,0,0,1,1,1.92c.19.67.33,1.31.5,1.95l.9,3.67c.56,2.32,1.06,4.42,1.5,6.22l1,4.21A9.74,9.74,0,0,1,123.73,211.64Z" style="fill:#455a64"></path><path d="M110,196.52a1.12,1.12,0,1,1-1.12-1.12A1.12,1.12,0,0,1,110,196.52Z" style="fill:#fff"></path><path d="M169.44,151.32a70.13,70.13,0,0,0,2-11.85,24.38,24.38,0,0,0-2-11.73c-.26-.55-2.4-4.19-3-4.08-.43.08,1,3.53.82,3.93A20.6,20.6,0,0,0,166,139.77a53.71,53.71,0,0,0,3.46,11.55" style="fill:#263238"></path><path d="M168.28,136.3c.43-10.46-5.3-19.44-15.78-19.57l-1,0a18.72,18.72,0,0,0-17.86,18c-.32,9.08-.56,19.1-.28,23.95.58,10,10.69,11.14,10.69,11.14l.11,3.44a12.17,12.17,0,0,0,13.52,11.72h0a12.17,12.17,0,0,0,10.81-12.18Z" style="fill:#ba7f72"></path><path d="M144.06,169.89A23.36,23.36,0,0,0,157,165.58s-2.76,7.37-12.82,6.91Z" style="fill:#8b5d54"></path><path d="M137.41,142.57a1.42,1.42,0,0,0,1.44,1.38,1.36,1.36,0,0,0,1.42-1.35,1.43,1.43,0,0,0-1.44-1.39A1.37,1.37,0,0,0,137.41,142.57Z" style="fill:#263238"></path><path d="M135.87,139.11c.19.18,1.24-.67,2.78-.74s2.71.65,2.87.46-.12-.42-.63-.76a3.94,3.94,0,0,0-2.3-.59,3.82,3.82,0,0,0-2.21.82C135.93,138.68,135.78,139,135.87,139.11Z" style="fill:#263238"></path><path d="M151.21,141.94a1.42,1.42,0,0,0,1.44,1.38,1.37,1.37,0,0,0,1.42-1.36,1.43,1.43,0,0,0-1.44-1.38A1.37,1.37,0,0,0,151.21,141.94Z" style="fill:#263238"></path><path d="M151.23,138c.16.2,1.3-.54,2.84-.43s2.62.94,2.8.76-.07-.42-.54-.81a4,4,0,0,0-2.23-.85,3.85,3.85,0,0,0-2.28.58C151.33,137.56,151.14,137.89,151.23,138Z" style="fill:#263238"></path><path d="M146.14,150.93a10.13,10.13,0,0,0-2.52-.34c-.4,0-.78-.09-.85-.35a1.9,1.9,0,0,1,.21-1.18c.32-1,.66-2,1-3.05,1.43-4.35,2.44-7.91,2.27-8s-1.48,3.42-2.9,7.76c-.34,1.08-.67,2.1-1,3.07a2.34,2.34,0,0,0-.14,1.56,1,1,0,0,0,.68.54,2.83,2.83,0,0,0,.67.07A10.79,10.79,0,0,0,146.14,150.93Z" style="fill:#263238"></path><path d="M150.71,131.33c.17.42,1.7.15,3.52.28s3.31.57,3.53.18c.1-.18-.17-.57-.78-.95a6.13,6.13,0,0,0-5.37-.34C151,130.79,150.64,131.14,150.71,131.33Z" style="fill:#263238"></path><path d="M136.07,136.06c.29.34,1.34-.07,2.61-.15s2.37.13,2.61-.25c.1-.18-.09-.52-.58-.83a3.58,3.58,0,0,0-2.15-.48,3.65,3.65,0,0,0-2.05.8C136.08,135.53,135.94,135.9,136.07,136.06Z" style="fill:#263238"></path><path d="M167.8,143.77c.17-.08,6.8-2.35,6.89,4.52s-6.82,5.55-6.84,5.35S167.8,143.77,167.8,143.77Z" style="fill:#ba7f72"></path><path d="M169.92,151s.12.08.32.17a1.19,1.19,0,0,0,.9,0,3,3,0,0,0,1.33-2.68,3.94,3.94,0,0,0-.36-1.71,1.35,1.35,0,0,0-.91-.9.61.61,0,0,0-.7.33c-.09.2,0,.33-.08.35s-.15-.12-.1-.4a.82.82,0,0,1,.27-.44.94.94,0,0,1,.66-.18,1.67,1.67,0,0,1,1.26,1.05,4.08,4.08,0,0,1,.44,1.91,3.1,3.1,0,0,1-1.71,3,1.27,1.27,0,0,1-1.09-.17C169.93,151.18,169.89,151,169.92,151Z" style="fill:#8b5d54"></path><path d="M133.26,153.26a2.15,2.15,0,0,1,3.24.82,2.68,2.68,0,0,1,4.8.46,2.19,2.19,0,0,1,3.6-.89,1.73,1.73,0,0,1,1.8-.88,1.7,1.7,0,0,1,2.65-1.71,2.78,2.78,0,0,1,4-1,1.53,1.53,0,0,1,3-.11,2.47,2.47,0,0,1,2.8-.95,1.66,1.66,0,0,1,2-1.67c-.31-.83.91-1.31,1.5-2,.26-.29.42-.68.7-.94s.82-.37,1.05,0a1.46,1.46,0,0,1,.78-1.74,1.48,1.48,0,0,1,1.81.62,4.27,4.27,0,0,1,.32,1.19c.29,1.29,1.14,2.8.26,3.79-.16.18-.37.33-.42.56-.1.39.3.72.36,1.12s-.33.85-.49,1.28a4.1,4.1,0,0,0,.18,2c.1.68-.23,1.58-.92,1.57a2.41,2.41,0,0,1-.54,3,2.35,2.35,0,0,1-1.14,3.19,1.21,1.21,0,0,1,.2,1.58,3.38,3.38,0,0,1-1.33,1.12,1,1,0,0,1,.35,1.39,2.28,2.28,0,0,1-1.28.92,1,1,0,0,0-.58.36c-.22.38.15.84.11,1.27,0,.66-1,.91-1.19,1.54s.17,1.28-.23,1.71-.7.27-1.05.42c-.63.28-.86,1-1.23,1.59a5.7,5.7,0,0,1-3.18,2c-.63.21-1.25.39-1.89.56-1.26.33-2.54.59-3.83.84-.63.12-1.42.19-1.8-.33a2.25,2.25,0,0,1-3.59-.16,5.39,5.39,0,0,1-3.51-.4l-1.17-.41c-1.17-.41-2.47-1-2.89-2.11a2.5,2.5,0,0,1-2-3.28c-.51.19-1-.29-1.17-.82a4.83,4.83,0,0,1,.09-1.6c.23-2.17-1.07-4.28-.94-6.46.1-1.53.89-3.09.35-4.52a2.69,2.69,0,0,1-.28-.9c0-.31.26-.66.57-.59a1.4,1.4,0,0,1,1.27-2" style="fill:#263238"></path><path d="M150.73,151.79c-.25,0-.18,1.67-1.56,2.92S146,155.86,146,156.1s.41.3,1.17.29a4.17,4.17,0,0,0,2.65-1.06,3.67,3.67,0,0,0,1.2-2.45C151.05,152.18,150.84,151.77,150.73,151.79Z" style="fill:#fff"></path><path d="M161.38,162.83a11.38,11.38,0,0,0-.38-7.11,2.82,2.82,0,0,1,.49,1,8.32,8.32,0,0,1,.54,2.55,8.86,8.86,0,0,1-.26,2.6A3.16,3.16,0,0,1,161.38,162.83Z" style="fill:#455a64"></path><path d="M162.77,160.3s.19-.28.33-.79a4.87,4.87,0,0,0,0-2c-.24-1.61-.78-2.83-.7-2.87a7,7,0,0,1,1,2.83,4.31,4.31,0,0,1-.1,2.13C163.08,160.1,162.79,160.32,162.77,160.3Z" style="fill:#455a64"></path><path d="M164.35,158.79a8,8,0,0,0-.19-6,2.42,2.42,0,0,1,.48.8,6.14,6.14,0,0,1,.48,2.19,6,6,0,0,1-.34,2.22A2.29,2.29,0,0,1,164.35,158.79Z" style="fill:#455a64"></path><path d="M136.52,125.52c-.22-2,2.55-6.31,5.31-7.69,4.18-2.09,10.63-3.52,14.59-2.56,4.78,1.16,8.79,3.36,11.32,7.57a27.88,27.88,0,0,1,3.66,14.09,8.45,8.45,0,0,1-.84,4.36c-.92,1.6-2.78,2.65-2.62,4.81a2.94,2.94,0,0,1-.65,2.18c-1.24,1.43-2.88.2-3.65-1.07-1.66-2.72-2-6-2.22-9.19a20.58,20.58,0,0,1,.2-6.74c.3-1.19.81-2.33,1-3.53a4.3,4.3,0,0,0-.64-3.52,5,5,0,0,0-.6-.56,7.36,7.36,0,0,0-7.37-1.11c-3.93,1.56-10.65,3.92-12.48,2.63-2.63-1.85-2.91-2.56-2.91-2.56Z" style="fill:#263238"></path><path d="M138.09,171.49a8,8,0,0,1-3.5-7,30.08,30.08,0,0,0,1.31,3.72A32.56,32.56,0,0,0,138.09,171.49Z" style="fill:#455a64"></path><path d="M143.13,174.56a8.08,8.08,0,0,1-3.48-2.59,8.16,8.16,0,0,1-2.09-3.8c.15-.06.94,1.7,2.48,3.46S143.21,174.42,143.13,174.56Z" style="fill:#455a64"></path><path d="M146.37,173a5,5,0,0,1-4.88-2.4c.12-.1,1,.8,2.32,1.45S146.38,172.86,146.37,173Z" style="fill:#455a64"></path><path d="M170.46,129.48a7.61,7.61,0,0,1-4.15,1.76,7.82,7.82,0,0,1-4.48-.53c0-.18,2,.35,4.41,0S170.38,129.31,170.46,129.48Z" style="fill:#455a64"></path><path d="M171.28,133.33a10.6,10.6,0,0,1-10.29.55,25,25,0,0,0,5.19.54A24.1,24.1,0,0,0,171.28,133.33Z" style="fill:#455a64"></path></g><g id="freepik--Floor--inject-387"><path d="M447.71,477.46c0,.14-88.53.26-197.7.26s-197.72-.12-197.72-.26,88.51-.26,197.72-.26S447.71,477.32,447.71,477.46Z" style="fill:#263238"></path></g></svg>